<svg xmlns="http://www.w3.org/2000/svg" data-name="Layer 1" viewBox="0 0 130 130"><path fill="#cee7fd" d="M119.79,3l-1,12.64h-6.71V78.12a7.71,7.71,0,0,1-7.71,7.71H63.9V11c0-4.44,3.09-8,6.9-8Z"/><path fill="#b9ddfc" d="M111.67,75.2c.11,1.56-1.09,4.51-2.15,5-10.24,5.15-8.42-6.45-8.42-6.61l.21-33.14c0-6.08-5.21-11-11.69-11h-26V74.78L99.37,84.93l-.08.9h5.11a7.71,7.71,0,0,0,7.71-7.71V76Z"/><path fill="#2481d7" d="M112.11,75.57a1.5,1.5,0,0,1-1.5-1.5V13.84a1.5,1.5,0,0,1,1.5-1.5h5.34l.7-7.84H70.8a5.4,5.4,0,0,0-5.4,5.4V74.07a1.5,1.5,0,1,1-3,0V9.9a8.41,8.41,0,0,1,8.4-8.4h49a1.48,1.48,0,0,1,1.11.48,1.52,1.52,0,0,1,.39,1.15l-1,10.84a1.5,1.5,0,0,1-1.5,1.37h-5.21V74.07A1.5,1.5,0,0,1,112.11,75.57Z"/><line x1="43.03" x2="39.78" y1="71.23" y2="71.23" fill="#d9e2e9"/><path fill="#9297ab" d="M43,72.73H39.78a1.5,1.5,0,0,1,0-3H43a1.5,1.5,0,0,1,0,3Z"/><line x1="50.24" x2="46.99" y1="71.23" y2="71.23" fill="#d9e2e9"/><path fill="#9297ab" d="M50.24,72.73H47a1.5,1.5,0,1,1,0-3h3.25a1.5,1.5,0,0,1,0,3Z"/><line x1="57.45" x2="54.2" y1="71.23" y2="71.23" fill="#d9e2e9"/><path fill="#9297ab" d="M57.45,72.73H54.2a1.5,1.5,0,0,1,0-3h3.25a1.5,1.5,0,0,1,0,3Z"/><line x1="64.66" x2="61.4" y1="71.23" y2="71.23" fill="#d9e2e9"/><path fill="#9297ab" d="M64.66,72.73H61.41a1.5,1.5,0,1,1,0-3h3.25a1.5,1.5,0,0,1,0,3Z"/><line x1="71.87" x2="68.61" y1="71.23" y2="71.23" fill="#d9e2e9"/><path fill="#9297ab" d="M71.87,72.73H68.61a1.5,1.5,0,0,1,0-3h3.26a1.5,1.5,0,0,1,0,3Z"/><line x1="71.87" x2="39.78" y1="63.15" y2="63.15" fill="#d9e2e9"/><path fill="#9297ab" d="M71.87,64.65H39.78a1.5,1.5,0,1,1,0-3H71.87a1.5,1.5,0,0,1,0,3Z"/><path fill="#cee7fd" d="M40.09,29.93h49l-1,10.84H81.39v64H33.18V36.83A6.9,6.9,0,0,1,40.09,29.93Z"/><path fill="#2481d7" d="M81.39,106.26H33.18a1.5,1.5,0,0,1-1.5-1.5V36.83a8.41,8.41,0,0,1,8.41-8.4h49a1.51,1.51,0,0,1,1.49,1.63l-1,10.85a1.5,1.5,0,0,1-1.49,1.36H82.89v62.49A1.5,1.5,0,0,1,81.39,106.26Zm-46.71-3H79.89V40.77a1.5,1.5,0,0,1,1.5-1.5h5.34l.7-7.84H40.09a5.41,5.41,0,0,0-5.41,5.4Z"/><path fill="#cee7fd" d="M9.4,52.17h49L57.42,63H50.71v64H2.5V59.07A6.9,6.9,0,0,1,9.4,52.17Z"/><path fill="#2481d7" d="M50.71,128.5H2.5A1.5,1.5,0,0,1,1,127V59.07a8.41,8.41,0,0,1,8.4-8.4h49a1.47,1.47,0,0,1,1.11.49,1.49,1.49,0,0,1,.39,1.14l-1,10.84a1.5,1.5,0,0,1-1.5,1.37H52.21V127A1.5,1.5,0,0,1,50.71,128.5ZM4,125.5H49.21V63a1.5,1.5,0,0,1,1.5-1.5h5.34l.7-7.84H9.4A5.4,5.4,0,0,0,4,59.07Z"/><line x1="12.77" x2="9.51" y1="110.35" y2="110.35" fill="#d9e2e9"/><path fill="#288de8" d="M12.77,111.85H9.51a1.5,1.5,0,0,1,0-3h3.26a1.5,1.5,0,0,1,0,3Z"/><line x1="19.97" x2="16.72" y1="110.35" y2="110.35" fill="#d9e2e9"/><path fill="#288de8" d="M20,111.85H16.72a1.5,1.5,0,1,1,0-3H20a1.5,1.5,0,0,1,0,3Z"/><line x1="27.18" x2="23.93" y1="110.35" y2="110.35" fill="#d9e2e9"/><path fill="#288de8" d="M27.18,111.85H23.93a1.5,1.5,0,0,1,0-3h3.25a1.5,1.5,0,1,1,0,3Z"/><line x1="34.39" x2="31.14" y1="110.35" y2="110.35" fill="#d9e2e9"/><path fill="#288de8" d="M34.39,111.85H31.14a1.5,1.5,0,0,1,0-3h3.25a1.5,1.5,0,1,1,0,3Z"/><line x1="41.6" x2="38.35" y1="110.35" y2="110.35" fill="#d9e2e9"/><path fill="#288de8" d="M41.6,111.85H38.35a1.5,1.5,0,1,1,0-3H41.6a1.5,1.5,0,0,1,0,3Z"/><line x1="41.6" x2="9.51" y1="102.27" y2="102.27" fill="#d9e2e9"/><path fill="#288de8" d="M41.6,103.77H9.51a1.5,1.5,0,0,1,0-3H41.6a1.5,1.5,0,1,1,0,3Z"/><line x1="41.6" x2="9.51" y1="94.19" y2="94.19" fill="#d9e2e9"/><path fill="#288de8" d="M41.6,95.69H9.51a1.5,1.5,0,0,1,0-3H41.6a1.5,1.5,0,0,1,0,3Z"/><line x1="41.6" x2="9.51" y1="86.11" y2="86.11" fill="#d9e2e9"/><path fill="#288de8" d="M41.6,87.61H9.51a1.5,1.5,0,0,1,0-3H41.6a1.5,1.5,0,1,1,0,3Z"/><path fill="#68aadb" d="M58.38,52.17h0a7.66,7.66,0,0,0-7.67,7.67v56.22H73.92L66.06,59.84A7.67,7.67,0,0,0,58.38,52.17Z"/><path fill="#288de8" d="M50.71,59.84v56.22h5.2V59.84A7.69,7.69,0,0,1,61,52.62a7.54,7.54,0,0,0-2.61-.45A7.66,7.66,0,0,0,50.71,59.84Z" opacity=".5"/><path fill="#cee7fd" d="M73.74,116.06h0a7.67,7.67,0,0,0,7.67-7.67V58.88c-7.24-2.72-14.34-5.25-20.31-6.27A7.94,7.94,0,0,1,66,58.36a5.36,5.36,0,0,1,.1,1.06v49A7.67,7.67,0,0,0,73.74,116.06Z"/><path fill="#b9ddfc" d="M78,111.29a7.81,7.81,0,0,1-6.88-7.85V62.93a10.38,10.38,0,0,0-8.29-10.21l-1.11-.2a8,8,0,0,1,5,6.27V108.3a7.68,7.68,0,0,0,14.93,2.5A7.62,7.62,0,0,1,78,111.29Z"/><path fill="#2481d7" d="M73.74,117.56a9.18,9.18,0,0,1-9.18-9.17V59.62a1.5,1.5,0,0,1,3,0v48.77a6.18,6.18,0,0,0,12.35,0V58.89a1.5,1.5,0,0,1,3,0v49.5A9.18,9.18,0,0,1,73.74,117.56Z"/><path fill="#68aadb" d="M89.09,29.93h0a7.68,7.68,0,0,0-7.68,7.68V85.67h23.21c-6.45-1-9.11-5-7.78-12.12l.62-35.91C97.46,33.4,93.33,29.93,89.09,29.93Z"/><path fill="#288de8" d="M81.39,37.61V85.67h5.2V37.61a7.68,7.68,0,0,1,5.08-7.23,7.54,7.54,0,0,0-2.61-.45A7.67,7.67,0,0,0,81.39,37.61Z" opacity=".5"/><path fill="#2481d7" d="M104.62,87.17H81.41a1.5,1.5,0,0,1-1.5-1.5V37.61a9.18,9.18,0,1,1,18.35,0,1.5,1.5,0,0,1-3,0,6.18,6.18,0,1,0-12.35,0V84.17h21.61a1.5,1.5,0,0,1,1.6,1.49h0A1.5,1.5,0,0,1,104.62,87.17Z"/><path fill="#2481d7" d="M104.44,87.17A9.19,9.19,0,0,1,95.26,78V37.29a1.5,1.5,0,0,1,3,0V78a6.18,6.18,0,1,0,12.35,0V36.65a1.5,1.5,0,1,1,3,0V78A9.18,9.18,0,0,1,104.44,87.17Z"/><path fill="#68aadb" d="M127.48,27l0-16.31a7.68,7.68,0,0,0-15.35,0V27Z"/><path fill="#288de8" d="M117.35,27V10.67a7.69,7.69,0,0,1,5.08-7.22A7.54,7.54,0,0,0,119.82,3a7.66,7.66,0,0,0-7.67,7.67V27Z" opacity=".5"/><path fill="#2481d7" d="M127.45 28.48h-15.3a1.5 1.5 0 0 1-1.5-1.5V10.67a9.18 9.18 0 0 1 18.35 0L129 27A1.5 1.5 0 0 1 127.45 28.48zm-13.8-3H126l0-14.81a6.18 6.18 0 0 0-12.35 0zM73.91 117.56H50.71a1.5 1.5 0 0 1-1.5-1.5V59.84a9.18 9.18 0 0 1 18.35 0 1.5 1.5 0 0 1-3 0 6.18 6.18 0 0 0-12.35 0v54.72H73.82a1.49 1.49 0 0 1 1.59 1.49h0A1.5 1.5 0 0 1 73.91 117.56z"/><path fill="#68aadb" d="M73.08 41.6h-32a1.5 1.5 0 0 1 0-3h32a1.5 1.5 0 0 1 0 3zM73.08 48.15h-32a1.5 1.5 0 0 1 0-3h32a1.5 1.5 0 0 1 0 3zM104 15.47H72a1.5 1.5 0 0 1 0-3h32a1.5 1.5 0 0 1 0 3zM104 22H72a1.5 1.5 0 0 1 0-3h32a1.5 1.5 0 0 1 0 3z"/><path fill="#2481d7" d="M18.56,67.57H9.31a1.5,1.5,0,0,1,0-3h9.25a1.5,1.5,0,1,1,0,3Z"/><path fill="#2481d7" d="M13.94 78a1.5 1.5 0 0 1-1.5-1.5V66.36a1.5 1.5 0 0 1 3 0V76.52A1.5 1.5 0 0 1 13.94 78zM28.52 78a1.51 1.51 0 0 1-1.38-.91L24 69.88l-3.1 7.23a1.5 1.5 0 0 1-2.76-1.18l4.48-10.45a1.5 1.5 0 0 1 2.76 0L29.9 75.93a1.49 1.49 0 0 1-.79 2A1.52 1.52 0 0 1 28.52 78z"/><path fill="#2481d7" d="M26.28 72.94H21.74a1.5 1.5 0 1 1 0-3h4.54a1.5 1.5 0 0 1 0 3zM40.33 78a1.5 1.5 0 0 1-1.16-.54L30.72 67.32A1.5 1.5 0 1 1 33 65.4l8.46 10.16a1.5 1.5 0 0 1-.19 2.11A1.46 1.46 0 0 1 40.33 78z"/><path fill="#2481d7" d="M31.87,78a1.46,1.46,0,0,1-1-.35,1.49,1.49,0,0,1-.19-2.11L39.17,65.4a1.5,1.5,0,0,1,2.31,1.92L33,77.48A1.47,1.47,0,0,1,31.87,78Z"/></svg>